# xmcd CD database file
#
# Track frame offsets:
#	182
#	12677
#	29215
#	40725
#	57100
#	79497
#	93935
#	110915
#	123260
#	141617
#	157065
#
# Disc length: 2308 seconds
#
# Revision: 10
# Processed by: cddbd v1.5.2PL0 Copyright (c) Steve Scherf et al.
# Submitted via: CDex 1.72
#
DISCID=a309020b
DTITLE=DeMent, Iris (USA-92-Infamour Angel-flk) - Infamous Angel
DYEAR=1992
DGENRE=Folk
TTITLE0=Let The Mystery Be
TTITLE1=These Hills
TTITLE2=Hotter Than Mojave In My Heart
TTITLE3=When Love Was Young
TTITLE4=Our Town
TTITLE5=Fifty Miles Of Elbow Room
TTITLE6=Infamous Angel
TTITLE7=Sweet Forgiveness
TTITLE8=After You're Gone
TTITLE9=Mama's Opry
TTITLE10=Higher Ground
EXTD=YEAR: 1992
EXTT0=
EXTT1=
EXTT2=
EXTT3=
EXTT4=
EXTT5=
EXTT6=
EXTT7=
EXTT8=
EXTT9=
EXTT10=
PLAYORDER=
